<svg xmlns="http://www.w3.org/2000/svg" xmlns:xlink="http://www.w3.org/1999/xlink" width="191.38" height="199.052" viewBox="0 0 191.38 199.052">
  <defs>
    <linearGradient id="linear-gradient" x1="12.24" y1="-9.291" x2="13.003" y2="-9.291" gradientUnits="objectBoundingBox">
      <stop offset="0" stop-color="#7f56d9" stop-opacity="0"/>
      <stop offset="0" stop-color="#895ddc" stop-opacity="0"/>
      <stop offset="0.1" stop-color="#a06fe3" stop-opacity="0.302"/>
      <stop offset="0.2" stop-color="#b67fea" stop-opacity="0.502"/>
      <stop offset="0.3" stop-color="#c78cef" stop-opacity="0.6"/>
      <stop offset="0.4" stop-color="#d697f4" stop-opacity="0.8"/>
      <stop offset="0.5" stop-color="#e1a0f7" stop-opacity="0.902"/>
      <stop offset="0.6" stop-color="#e9a6fa" stop-opacity="0.902"/>
      <stop offset="0.7" stop-color="#eea9fb"/>
      <stop offset="0.8" stop-color="#f0abfc"/>
    </linearGradient>
    <linearGradient id="linear-gradient-2" x1="31.986" y1="-13.899" x2="33.369" y2="-13.899" gradientUnits="objectBoundingBox">
      <stop offset="0" stop-color="#7f56d9" stop-opacity="0"/>
      <stop offset="1" stop-color="#cb92f0"/>
    </linearGradient>
  </defs>
  <g id="Eddy_face" data-name="Eddy face" transform="translate(-0.118 0.052)">
    <g id="Layer_1">
      <g id="Group_763" data-name="Group 763">
        <path id="Path_805" data-name="Path 805" d="M182.9,102.2s-8.9,7-31.2,3.7a11.085,11.085,0,0,0-2.4-.1c-1.4,0-2.8.5-2.3,2,.4,1.1,1.7,2.8,4.8,5.3a.31.31,0,0,1,.2.1l13.9,9.4a17.021,17.021,0,0,1,6.8,9.2c1.2,4.2,1,9.3-6.2,10.1-9,.9-41.7-14-41.7-14s-15.8-7.5-12.9,5.6c1.4,6.6,7.6,36.5,7.7,36.7,1.4,5.5.3,10.2-2.1,12.6-3,3-8.1,2.4-13.4-4.8-8-11-14.4-19.5-19.3-24.6-5.9-6.1-9.7-7.1-11.5-1.2-2.3,7.4-12,38.1-12,38.1-1,3.1-4.1,6.9-7.2,8a8.767,8.767,0,0,1-3.2.6c-3.9-.4-3.3-5.8-3.2-7.2,0-3,2.1-23.3.9-27.6,0,0-4.3,12.5-10.1,13.7a4.635,4.635,0,0,1-3.8-.9s-5.4-2.9,1.7-17.2c2.2-4.5,6.7-20.1,5.4-30.4-.5-3.9-1.9-5.6-6.4-7.9-7.8-4-18.7-11.4-25.8-24.1C5.2,89.4-18.5,40.9,31.3,9.4A59.232,59.232,0,0,1,47.2,2.3c.4-.1.8-.2,1.1-.3,18.5-4.9,38.3-.8,54.1,9.9,6.2,4.2,15.4,15.4,17.5,18.7a64.948,64.948,0,0,1,9.5,29.2,9.528,9.528,0,0,0,2.2,5.6c4.8,6,14.6,13.6,34.6,19h.2l21.8,3.9s10.1,1.9-5.2,13.7Z" fill="#7f56d9"/>
        <path id="Path_806" data-name="Path 806" d="M182.9,102.2s-8.9,7-31.2,3.7c0,0-.8-.1-1.7-.2h-.6c-16-3.7-50.8-15.2-76.6-49.2C55.5,34,49.7,15.2,48.3,2c18.5-4.9,38.3-.8,54.1,9.9,6.2,4.2,15.4,15.4,17.5,18.7a64.948,64.948,0,0,1,9.5,29.2,9.528,9.528,0,0,0,2.2,5.6c4.8,6,14.6,13.6,34.6,19h.2l21.8,3.9a2.483,2.483,0,0,1,1,.3c2.1.9,6,4-6.2,13.4Z" fill="url(#linear-gradient)"/>
        <g id="Group_761" data-name="Group 761">
          <path id="Path_807" data-name="Path 807" d="M109.5,41.8c1.9,7-1.6,14.5-8.5,21.1-9,8.6-24.7,19.3-43.6,28.9-3,1.5-6.1,3-9.2,4.5-8.5,3.9-16.8,3.4-22.4-1.2a38.143,38.143,0,0,1-13.7-22c-1.4-7.1,2-14.2,8.7-20.7,9.4-9.1,24.7-20.4,45-29.8,2.4-1.1,4.9-2.2,7.4-3.3,8.7-3.6,16.6-2.9,22.5,1.3,6.1,4.4,11.2,11.7,13.8,21.2Z"/>
          <path id="Path_808" data-name="Path 808" d="M65.8,22.6,48.2,96.3s-16.8,3.4-22.4-1.2a38.143,38.143,0,0,1-13.7-22c-1.4-7.1,2-14.2,8.7-20.7,9.4-9.1,24.7-20.4,45-29.8Z" opacity="0.3" fill="url(#linear-gradient-2)"/>
          <path id="Path_809" data-name="Path 809" d="M48.2,96.2c23-10.6,42.5-23.4,52.8-33.3,6.9-6.6,10.4-14.1,8.5-21.1-2.6-9.5-7.7-16.8-13.8-21.2s-13.8-5-22.5-1.3c-23.9,10-41.8,23-52.3,33.1C14.2,58.8,10.8,66,12.2,73.1s5.4,15.2,13.7,22c5.5,4.5,13.9,5.1,22.4,1.1Z" fill="none" stroke="#000" stroke-miterlimit="10" stroke-width="2.4"/>
        </g>
        <g id="Group_762" data-name="Group 762">
          <path id="Path_810" data-name="Path 810" d="M93.1,35.5h0A16.383,16.383,0,0,0,88.5,56h0a16.4,16.4,0,0,0-20.4-4.6h0a16.383,16.383,0,0,0,4.6-20.5h0A16.4,16.4,0,0,0,93.1,35.5Z" fill="#fff"/>
          <path id="Path_811" data-name="Path 811" d="M78.3,45.2,42,67.7,78,44.6l.3.6Z" fill="#fff"/>
          <path id="Path_812" data-name="Path 812" d="M52.1,61.3S73.8,48.6,74.4,39l7.5,11.7s-7.8-4-29.8,10.5Z" fill="#fff"/>
        </g>
        <path id="Path_813" data-name="Path 813" d="M17,29.2c1,.7.4,1.8-.5,3s-2.1,1.8-2.7,1.4-.4-1.8.5-3,2.1-1.8,2.7-1.4Z" fill="#b29ae8"/>
        <path id="Path_814" data-name="Path 814" d="M18.4,34.6c.9.7.3,1.7-.5,2.8s-2,1.7-2.5,1.3-.3-1.7.5-2.8S17.9,34.2,18.4,34.6Z" fill="#b29ae8"/>
        <path id="Path_815" data-name="Path 815" d="M12.9,35.6c.9.7.3,1.7-.5,2.8s-2,1.7-2.5,1.3-.3-1.7.5-2.8S12.4,35.2,12.9,35.6Z" fill="#b29ae8"/>
        <path id="Path_816" data-name="Path 816" d="M48.4,164.1c-.5-7.3-.6-14.5-1-21.8-.4-7.9-.6-14.4-8.2-18.8,8,3.9,8.4,10.8,8.8,18.7.3,7.3.3,14.6.3,21.8h0Z" fill="#5e45a3"/>
        <path id="Path_817" data-name="Path 817" d="M84.7,153.5c-5.9-6.1-9.7-7.1-11.5-1.2-2.3,7.4-12,38.1-12,38.1-1,3.1-4.1,6.9-7.2,8a8.767,8.767,0,0,1-3.2.6s5.2-.9,8-13.8c2.8-13,10.7-34.8,10.7-34.8s1.5-13.8,14,1.5a19.228,19.228,0,0,1,1.3,1.7Z" opacity="0.2"/>
        <path id="Path_818" data-name="Path 818" d="M172.7,131.9c1.2,4.2,1,9.3-6.2,10.1-9,.9-41.7-14-41.7-14s-15.8-7.5-12.9,5.6c1.4,6.6,7.6,36.5,7.7,36.7,1.4,5.5.3,10.2-2.1,12.6.8-1.2,2.9-5.6-.5-17-4.1-13.8-8.2-32-8.2-32s-6.8-17.4,14-10.2c20.7,7.2,30.8,12.2,36.2,14.2s14.9,3.5,13.8-5.9Z" opacity="0.2"/>
        <path id="Path_819" data-name="Path 819" d="M182.9,102.2s-8.9,7-31.2,3.7c0,0-.8-.1-1.7-.2,5.5-.2,23.7-1.3,31.7-7.6,5.7-4.4,7.2-7.6,7.4-9.4,2.1.9,6,4-6.2,13.4Z" opacity="0"/>
      </g>
    </g>
  </g>
</svg>
